# xmcd
#
# Track frame offsets: 
#        150
#        15934
#        46840
#        66005
#        98174
#        121388
#        148822
#        180372
#        209924
#        237829
#        261958
#        284060
#        307494
#        326371
#
# Disc length: 4715 seconds
#
# Revision: 1
# Processed by: cddbd v1.5.2PL0 Copyright (c) Steve Scherf et al.
# Submitted via: ExactAudioCopy v1.0b3
#
DISCID=d312690e
DTITLE=Various Artist - Time Blues  vol.20
DYEAR=2007
DGENRE=Blues
TTITLE0=Eddy Chiff Clearwater - Lonesome Town
TTITLE1=Michael Lee Firkins - I need You
TTITLE2=Big Bill Morganfield - Trapped
TTITLE3=The Butler Twins - Crack House Baby
TTITLE4=Derek Trucks and Gregg Allman - Drown In My Own Tears
TTITLE5=Dana Gillespie - Put My Anchor Down
TTITLE6=Little Milton - Chains and Tears
TTITLE7=Eric Sardinas - Lours Dice Blues
TTITLE8=Barkin Bill - No Rolling Blues
TTITLE9=Blues Company - Over the City
TTITLE10=Omer and The Howlers - White Crosses
TTITLE11=Snake Eyes - Blue Panther Blues
TTITLE12=Big John Wrencher - Trouble Making Woman
TTITLE13=Willie Kent - I Cant stop Loving Yoy
EXTD=YEAR: 2007
EXTT0=
EXTT1=
EXTT2=
EXTT3=
EXTT4=
EXTT5=
EXTT6=
EXTT7=
EXTT8=
EXTT9=
EXTT10=
EXTT11=
EXTT12=
EXTT13=
PLAYORDER=
